<?xml version="1.0" standalone="no"?>
<!DOCTYPE svg PUBLIC "-//W3C//DTD SVG 20010904//EN"
 "http://www.w3.org/TR/2001/REC-SVG-20010904/DTD/svg10.dtd">
<svg version="1.0" xmlns="http://www.w3.org/2000/svg"
 width="1080.000000pt" height="1080.000000pt" viewBox="0 0 1080.000000 1080.000000"
 preserveAspectRatio="xMidYMid meet">

<g transform="translate(0.000000,1080.000000) scale(0.100000,-0.100000)"
fill="#000000" stroke="none">
<path d="M2329 7960 c-239 -9 -381 -19 -674 -50 -201 -22 -587 -79 -596 -89
-14 -14 45 -1701 96 -2716 34 -674 128 -2151 138 -2161 1 -2 128 -8 282 -15
566 -24 1790 6 2050 51 241 41 414 101 590 204 600 354 1009 1029 1121 1851
25 182 25 617 0 800 -110 811 -508 1487 -1089 1847 -205 128 -415 192 -769
237 -296 38 -757 54 -1149 41z"/>
<path d="M6980 7940 c-426 -15 -840 -43 -1130 -76 -164 -18 -426 -52 -459 -60
l-24 -5 7 -257 c29 -1103 79 -2273 142 -3347 39 -668 79 -1253 86 -1260 5 -5
1468 75 1468 79 0 1 13 90 29 197 50 330 119 933 137 1194 7 100 23 165 24 95
0 -77 169 -700 265 -979 102 -299 236 -597 348 -776 87 -141 70 -133 157 -79
406 254 966 524 1406 680 51 18 52 19 64 73 6 31 14 63 16 73 3 10 -16 40 -52
80 -145 161 -304 399 -419 628 -58 116 -175 394 -175 416 0 6 15 16 34 22 68
25 192 116 281 206 299 302 438 718 438 1316 0 276 -28 476 -94 680 -188 572
-662 929 -1399 1054 -281 47 -673 63 -1150 46z"/>
</g>
</svg>
